<svg xmlns="http://www.w3.org/2000/svg" width="600" height="360" viewBox="0 0 600 360">
  <defs>
    <linearGradient id="wall" x2="0" y2="1"><stop stop-color="#f0eee7"/><stop offset="1" stop-color="#d9d8cf"/></linearGradient>
    <linearGradient id="floor" x2="0" y2="1"><stop stop-color="#bca98f"/><stop offset="1" stop-color="#dacbb7"/></linearGradient>
    <linearGradient id="glass" x2="1" y2="1"><stop stop-color="#e2f0f1"/><stop offset="1" stop-color="#b3cbd0"/></linearGradient>
    <filter id="shadow"><feGaussianBlur stdDeviation="8"/></filter>
  </defs>
  <rect width="600" height="360" fill="url(#wall)"/>
  <path d="M0 0h105v255L0 305Z" fill="#ccc9bd"/>
  <path d="M0 305 105 255h495v105H0Z" fill="url(#floor)"/>
  <path d="M105 255h495" stroke="#f6f3eb" stroke-width="8"/>
  <path d="M0 308 105 258V0" fill="none" stroke="#bcb7ab" stroke-width="2"/>
  <path d="m120 360 125-105m45 105 68-105m90 105 10-105" stroke="#a6957e" opacity=".4"/>
  <rect x="161" y="49" width="185" height="158" rx="2" fill="#a39e92"/>
  <rect x="168" y="55" width="171" height="145" fill="url(#glass)"/>
  <path d="M250 56v145m-82-77h171" stroke="#fbfaf5" stroke-width="7"/>
  <path d="m169 201-53 79h242l-20-79" fill="#fff" opacity=".25"/>
  <rect x="155" y="201" width="198" height="9" rx="2" fill="#f8f7ef"/>
  <ellipse cx="428" cy="298" rx="87" ry="13" fill="#6a6257" opacity=".18" filter="url(#shadow)"/>
  <rect x="376" y="236" width="119" height="46" rx="6" fill="#c4c3b0"/>
  <rect x="365" y="211" width="140" height="48" rx="10" fill="#d6d4c1"/>
  <path d="M382 282v15m107-15v15" stroke="#82745f" stroke-width="6"/>
  <rect x="519" y="263" width="33" height="29" rx="3" fill="#8d8b77"/>
  <path d="M535 266v-75m0 29q-31-23-28-42 28 0 28 42m0 18q30-30 30-50-32 3-30 50" fill="#6d8069" stroke="#61745c" stroke-width="3"/>
</svg>
